# xmcd
#
# Track frame offsets: 
#        150
#        19212
#        39791
#        60210
#        81828
#        96536
#        106870
#        123592
#        142341
#        162604
#        176609
#        202910
#        219940
#
# Disc length: 3201 seconds
#
# Revision: 0
# Processed by: cddbd v1.5.2PL0 Copyright (c) Steve Scherf et al.
# Submitted via: ExactAudioCopy v0.99pb5
#
DISCID=b10c7f0d
DTITLE=Rodney Parker and 50 Peso Reward -  Live in the Living Room
DYEAR=2011
DGENRE=Country
TTITLE0=Firefight
TTITLE1=Highway Blues
TTITLE2=Guitars
TTITLE3=Ghost
TTITLE4=Where the Bright Lights Glow Me
TTITLE5=Bring Me My Gun
TTITLE6=The Ship
TTITLE7=Atlantic City
TTITLE8=The Apology
TTITLE9=I'm Never Getting Married
TTITLE10=Tell Me What It Is
TTITLE11=Skin and Bones
TTITLE12=10 lb. Test
EXTD=
EXTT0=
EXTT1=
EXTT2=
EXTT3=
EXTT4=
EXTT5=
EXTT6=
EXTT7=
EXTT8=
EXTT9=
EXTT10=
EXTT11=
EXTT12=
PLAYORDER=
